<?xml version="1.0" standalone="no"?>
<!DOCTYPE svg PUBLIC "-//W3C//DTD SVG 20010904//EN"
 "http://www.w3.org/TR/2001/REC-SVG-20010904/DTD/svg10.dtd">
<svg version="1.0" xmlns="http://www.w3.org/2000/svg"
 width="512.000000pt" height="512.000000pt" viewBox="0 0 512.000000 512.000000"
 preserveAspectRatio="xMidYMid meet">

<g transform="translate(0.000000,512.000000) scale(0.100000,-0.100000)"
fill="#000000" stroke="none">
<path d="M3040 5110 c-120 -26 -97 -5 -1045 -951 l-890 -888 -370 -3 c-354 -3
-373 -5 -430 -26 -127 -47 -226 -144 -277 -270 l-23 -57 -3 -1245 c-2 -893 0
-1262 8 -1304 34 -175 175 -319 348 -355 75 -16 4329 -16 4404 0 170 36 311
178 347 347 8 37 11 420 11 1280 0 1040 -2 1236 -14 1283 -13 49 -13 63 -1
110 28 102 15 209 -37 314 -26 52 -137 167 -831 864 -441 442 -825 818 -852
836 -28 18 -73 40 -100 50 -60 20 -183 28 -245 15z m164 -310 c26 -12 162
-141 376 -355 l335 -335 -420 -420 -420 -420 -775 0 -775 0 760 760 c418 418
773 766 790 775 41 20 81 19 129 -5z m1028 -1007 c54 -54 98 -102 98 -108 0
-5 -91 -101 -202 -212 l-203 -203 -210 0 -210 0 310 310 c170 171 312 310 315
310 2 0 49 -44 102 -97z m428 -429 l105 -106 -55 6 c-30 3 -125 6 -210 6
l-155 0 100 100 c55 55 102 100 105 100 3 0 53 -48 110 -106z m86 -420 c15
-11 37 -33 48 -48 21 -27 21 -33 24 -1253 l2 -1225 -22 -40 c-14 -24 -38 -48
-60 -59 -36 -18 -96 -19 -2179 -19 l-2141 0 -40 22 c-24 14 -48 38 -59 60 -18
36 -19 79 -19 1248 0 1003 2 1216 14 1243 17 40 55 75 92 87 16 5 985 8 2171
7 l2142 -2 27 -21z"/>
<path d="M772 2551 c-66 -23 -124 -78 -152 -143 -20 -47 -21 -63 -18 -306 3
-243 4 -259 25 -298 28 -53 91 -107 142 -122 25 -8 141 -12 347 -12 278 0 313
2 349 19 51 23 121 102 135 150 5 20 10 148 10 284 0 265 -3 285 -54 352 -13
17 -48 44 -77 60 l-54 30 -300 3 c-272 2 -305 0 -353 -17z m538 -431 l0 -150
-205 0 -205 0 0 150 0 150 205 0 205 0 0 -150z"/>
<path d="M590 900 l0 -150 350 0 350 0 0 150 0 150 -350 0 -350 0 0 -150z"/>
<path d="M1670 900 l0 -150 350 0 350 0 0 150 0 150 -350 0 -350 0 0 -150z"/>
<path d="M2750 900 l0 -150 350 0 350 0 0 150 0 150 -350 0 -350 0 0 -150z"/>
<path d="M3830 900 l0 -150 350 0 350 0 0 150 0 150 -350 0 -350 0 0 -150z"/>
</g>
</svg>
