<?xml version="1.0" standalone="no"?>
<!DOCTYPE svg PUBLIC "-//W3C//DTD SVG 20010904//EN"
 "http://www.w3.org/TR/2001/REC-SVG-20010904/DTD/svg10.dtd">
<svg version="1.0" xmlns="http://www.w3.org/2000/svg"
 width="512.000000pt" height="512.000000pt" viewBox="0 0 512.000000 512.000000"
 preserveAspectRatio="xMidYMid meet">

<g transform="translate(0.000000,512.000000) scale(0.100000,-0.100000)"
fill="#000000" stroke="none">
<path d="M413 4466 c-191 -46 -353 -209 -398 -397 -22 -97 -22 -2921 0 -3018
35 -148 148 -289 285 -353 41 -20 99 -41 128 -47 37 -8 424 -11 1263 -11 1344
0 1256 -5 1285 67 18 41 6 89 -27 119 -20 18 -67 19 -1253 24 l-1231 5 -67 33
c-76 37 -120 82 -157 162 l-26 55 0 300 0 300 755 5 755 5 57 23 c168 68 290
203 333 367 22 87 22 823 0 910 -43 164 -165 299 -333 367 l-57 23 -755 5
-755 5 0 300 0 300 26 55 c37 80 81 125 157 162 l67 33 2095 0 2095 0 55 -26
c80 -37 125 -81 162 -157 l33 -67 5 -1015 c3 -558 9 -1022 13 -1031 5 -9 23
-24 41 -34 42 -23 94 -14 127 21 l24 26 3 1001 c2 711 0 1019 -8 1062 -38 200
-203 373 -402 420 -55 13 -344 15 -2153 14 -1651 -1 -2101 -3 -2142 -13z
m1335 -1305 c70 -38 100 -69 140 -145 l27 -51 0 -405 0 -405 -27 -51 c-40 -76
-70 -107 -140 -145 l-63 -34 -732 -3 -733 -3 0 641 0 641 733 -3 732 -3 63
-34z"/>
<path d="M980 2976 c-84 -18 -149 -54 -213 -117 -129 -129 -161 -314 -83 -484
32 -71 124 -163 197 -198 162 -76 345 -48 474 74 92 87 135 185 135 309 0 123
-43 222 -133 308 -65 61 -119 89 -206 108 -78 16 -98 16 -171 0z m178 -225
c138 -71 163 -248 49 -348 -137 -120 -352 -24 -351 157 0 87 47 161 124 194
50 22 133 20 178 -3z"/>
<path d="M3910 2553 c-8 -3 -266 -255 -572 -561 -378 -378 -559 -565 -563
-583 -9 -39 18 -95 54 -113 25 -13 75 -16 305 -16 l275 0 3 -563 3 -564 30
-48 c22 -36 45 -57 84 -77 l53 -28 355 0 c253 0 368 4 397 12 53 16 118 81
134 134 9 31 12 184 12 587 l0 546 289 3 289 3 26 24 c28 27 42 76 31 113 -8
25 -1034 1061 -1099 1109 -37 27 -71 34 -106 22z m625 -1063 c-207 -5 -215 -6
-237 -28 l-23 -23 -5 -612 -5 -612 -317 -3 -318 -2 0 590 c0 635 0 638 -51
674 -20 14 -56 16 -234 16 l-210 0 405 405 405 405 403 -402 402 -403 -215 -5z"/>
</g>
</svg>
