<?xml version="1.0" standalone="no"?>
<!DOCTYPE svg PUBLIC "-//W3C//DTD SVG 20010904//EN"
 "http://www.w3.org/TR/2001/REC-SVG-20010904/DTD/svg10.dtd">
<svg version="1.0" xmlns="http://www.w3.org/2000/svg"
 width="512.000000pt" height="512.000000pt" viewBox="0 0 512.000000 512.000000"
 preserveAspectRatio="xMidYMid meet">

<g transform="translate(0.000000,512.000000) scale(0.100000,-0.100000)"
fill="#000000" stroke="none">
<path d="M3175 4793 c-290 -37 -525 -158 -725 -370 -333 -354 -410 -869 -195
-1309 348 -715 1282 -883 1858 -335 589 560 445 1529 -283 1896 -162 82 -353
126 -530 123 -52 0 -108 -3 -125 -5z m340 -230 c509 -112 835 -619 729 -1133
-72 -353 -341 -635 -696 -732 -72 -20 -106 -23 -248 -22 -149 1 -174 3 -253
27 -335 102 -570 340 -667 677 -33 112 -38 314 -12 440 95 461 516 788 982
763 52 -2 127 -12 165 -20z"/>
<path d="M3254 4359 c-36 -18 -54 -62 -54 -132 l0 -65 -47 -7 c-103 -15 -196
-84 -243 -180 -34 -69 -35 -198 -2 -265 35 -71 75 -114 144 -150 63 -34 63
-34 235 -40 164 -5 173 -6 197 -29 51 -48 40 -142 -20 -170 -16 -7 -107 -11
-255 -11 -255 0 -286 -6 -313 -59 -20 -38 -20 -64 0 -102 23 -46 67 -59 193
-59 l109 0 4 -74 c3 -62 7 -79 27 -100 33 -35 85 -44 126 -21 43 22 55 52 55
130 l0 63 43 7 c105 17 202 87 248 181 20 41 24 64 24 139 0 78 -4 97 -27 141
-15 28 -49 71 -76 96 -72 64 -124 78 -294 78 -160 0 -196 11 -222 65 -9 18
-16 38 -16 45 0 7 7 27 16 45 28 60 53 65 324 65 l242 0 29 29 c47 48 37 130
-21 164 -22 13 -54 17 -149 17 l-121 0 0 76 c0 70 -2 78 -29 105 -31 31 -84
38 -127 18z"/>
<path d="M65 2551 c-11 -5 -29 -19 -40 -31 -20 -22 -20 -36 -20 -921 l0 -899
28 -27 27 -28 463 -3 c447 -2 463 -2 494 18 24 14 36 32 45 65 7 25 15 44 18
43 3 -2 52 -29 110 -60 217 -118 541 -239 785 -293 581 -129 1176 -99 1731 89
133 45 1138 452 1190 482 152 87 246 288 217 460 -40 233 -253 401 -483 381
-53 -5 -258 -64 -559 -162 -21 -6 -23 -5 -18 14 9 36 -11 146 -37 205 -28 64
-109 154 -170 190 -96 56 -98 56 -754 56 -583 0 -605 1 -631 20 -52 37 -206
108 -289 134 -172 54 -216 58 -674 63 l-428 5 0 54 c0 30 -6 70 -14 89 -28 65
-25 65 -523 64 -246 0 -457 -4 -468 -8z m785 -951 l0 -750 -317 2 -318 3 -3
735 c-1 404 0 741 3 748 3 9 77 12 320 12 l315 0 0 -750z m960 530 c228 -16
367 -57 520 -152 l85 -53 635 -5 c349 -3 644 -9 655 -14 47 -21 89 -62 111
-110 39 -84 28 -160 -34 -228 -69 -76 -32 -72 -745 -78 l-639 -5 -24 -28 c-43
-50 -28 -131 30 -162 28 -15 89 -16 666 -13 712 5 696 3 802 78 49 34 102 53
402 145 237 72 361 105 395 105 175 0 288 -189 207 -348 -14 -28 -40 -62 -58
-75 -39 -28 -1053 -439 -1213 -491 -574 -186 -1179 -195 -1765 -24 -213 61
-494 185 -697 307 l-73 43 0 554 0 553 128 4 c290 7 494 6 612 -3z"/>
<path d="M481 1266 c-58 -32 -69 -119 -22 -167 43 -43 101 -41 147 5 47 47 47
95 0 142 -37 37 -81 44 -125 20z"/>
</g>
</svg>
