<?xml version="1.0" standalone="no"?>
<!DOCTYPE svg PUBLIC "-//W3C//DTD SVG 20010904//EN"
 "http://www.w3.org/TR/2001/REC-SVG-20010904/DTD/svg10.dtd">
<svg version="1.0" xmlns="http://www.w3.org/2000/svg"
 width="512.000000pt" height="512.000000pt" viewBox="0 0 512.000000 512.000000"
 preserveAspectRatio="xMidYMid meet">

<g transform="translate(0.000000,512.000000) scale(0.100000,-0.100000)"
fill="#000000" stroke="none">
<path d="M3745 4728 c-45 -24 -45 -27 -45 -355 l0 -313 -1474 0 c-1436 0
-1474 0 -1497 -19 l-24 -19 -3 -326 -3 -327 30 -29 29 -30 1471 0 1471 0 0
-310 0 -311 25 -24 c32 -33 75 -32 117 2 18 15 286 241 595 501 386 324 565
480 569 497 11 45 -4 69 -83 135 -42 36 -296 249 -563 474 -267 225 -503 422
-524 437 -42 31 -60 35 -91 17z m600 -651 c247 -209 451 -382 453 -387 2 -4
-209 -186 -468 -403 l-470 -397 0 256 c0 266 -5 302 -45 318 -9 3 -678 6
-1486 6 l-1469 0 0 215 0 215 1476 2 1476 3 24 28 24 28 0 261 c0 245 1 260
17 247 10 -8 220 -184 468 -392z"/>
<path d="M1213 2398 c-934 -784 -1093 -921 -1099 -945 -4 -14 -3 -36 2 -49 8
-22 1150 -990 1196 -1015 25 -13 63 -4 88 21 19 19 20 35 20 335 l0 315 1474
0 c1436 0 1474 0 1497 19 l24 19 3 326 3 327 -30 29 -29 30 -1471 0 -1471 0 0
309 c0 297 -1 309 -21 335 -15 19 -30 26 -55 26 -28 0 -51 -14 -131 -82z m49
-444 c3 -266 3 -266 27 -285 23 -19 61 -19 1497 -19 l1474 0 0 -215 0 -215
-1475 -2 -1474 -3 -23 -23 c-23 -22 -23 -28 -28 -287 l-5 -265 -240 202 c-607
510 -690 581 -690 590 0 10 914 786 927 787 4 1 8 -119 10 -265z"/>
</g>
</svg>
